
<svg width="2981" height="1945" viewBox="0 0 2981 1945" fill="none" xmlns="http://www.w3.org/2000/svg">
<path d="M0.0510109 614.028C22.6128 613.692 44.9575 616.401 67.2353 619.255C115.742 625.503 163.431 636.62 209.52 652.425C281.518 676.716 348.483 713.019 407.332 759.664C411.307 762.87 416.1 765.435 417.987 770.565C417.102 771.592 416.233 772.65 415.315 773.644C346.288 848.962 277.261 924.313 208.234 999.696C181.803 1028.55 155.328 1057.35 128.808 1086.09C122.997 1083.42 118.455 1079.02 113.227 1075.56C79.0758 1053 40.7491 1041.73 0.0342945 1036.92V910.285C2.75641 908.201 3.7415 905.058 5.2445 902.269C18.8551 876.874 39.814 860.441 69.0224 854.012C79.0494 851.819 89.3581 851.058 99.6166 851.752L143.705 854.702C142.035 851.72 139.346 850.806 137.142 849.427C124.383 841.411 111.123 834.117 97.596 827.319C79.5605 818.352 63.1958 806.58 49.1658 792.481C28.8084 771.96 14.4463 748.441 10.3548 719.808C8.36751 705.828 5.6956 691.96 3.35759 678.028C2.87329 675.111 2.50589 672.193 0.0175781 670.012L0.0510109 614.028Z" fill="#E91229"/>
<path d="M459.386 1619.42C458.267 1632.34 456.997 1645.21 453.29 1657.81C449.754 1670.37 443.657 1682.12 435.354 1692.39L433.901 1693.56L434.035 1693.47C423.163 1702.51 410.354 1708.15 397.011 1712.87C366.533 1723.62 336.056 1734.33 305.628 1745.2C302.656 1746.26 298.948 1746.28 297.111 1749.55H61.7905C61.9575 1747.29 59.9866 1746.34 58.6172 1745.2C35.02 1724.91 20.2074 1699.53 11.3396 1670.62C5.54473 1651.86 3.44045 1632.66 2.50525 1613.24C3.52395 1601.59 3.15647 1589.87 4.92668 1578.23C11.4063 1535.74 25.3342 1496.06 51.6869 1460.87C52.4718 1459.82 53.5407 1458.87 53.4739 1457.4C54.0158 1457.2 54.4808 1456.84 54.8063 1456.38C55.1318 1455.92 55.3018 1455.37 55.2939 1454.81V1454.99C57.8824 1454.17 58.9682 1451.78 60.5714 1450.08C90.7651 1416.91 129.208 1401.22 174.683 1400.39C208.801 1399.81 241.483 1406.89 273.297 1418.02C318.621 1433.88 360.388 1455.7 396.059 1487.41C421.643 1510.16 440.798 1536.85 451.62 1568.85C457.064 1585.36 458.885 1602.29 459.386 1619.42ZM223.53 1707.59C253.922 1707.49 284.246 1704.81 314.145 1699.58C332.732 1696.24 351.102 1692.12 368.103 1683.66C375.57 1680.05 382.203 1675.03 387.609 1668.91C393.014 1662.78 397.081 1655.68 399.566 1648.02C408.668 1621.87 405.294 1597.02 391.216 1573.28C381.978 1558 369.944 1544.46 355.695 1533.29C320.007 1504.59 278.874 1485.56 234.887 1472.06C213.594 1465.52 191.784 1461.79 169.272 1462.65C133.651 1464.05 105.812 1478.85 86.4398 1507.54C68.0702 1534.59 58.9562 1566.46 60.3708 1598.72C61.4897 1629.08 72.8293 1655.44 97.3617 1675.54C114.245 1689.4 134.386 1696.85 155.812 1701.42C179.042 1706.5 202.639 1707.37 223.53 1707.67V1707.59Z" fill="black"/>
<path d="M0.052124 670.077C2.54043 672.193 2.90784 675.111 3.39214 678.093C5.73015 692.025 8.40206 705.892 10.3894 719.872C14.4809 748.506 28.7594 772.025 49.2003 792.546C63.2304 806.644 79.595 818.416 97.6305 827.383C111.158 834.181 124.351 841.443 137.176 849.491C139.381 850.87 142.103 851.784 143.74 854.766L99.6512 851.816C89.3927 851.122 79.0835 851.884 69.0565 854.077C39.8481 860.49 18.9564 876.938 5.27905 902.333C3.77604 905.155 2.79095 908.297 0.0688404 910.349L0.052124 670.077Z" fill="black"/>
<path d="M297.111 1749.55C298.931 1746.34 302.656 1746.34 305.628 1745.2C336.056 1734.33 366.533 1723.62 397.011 1712.87C410.371 1708.15 423.163 1702.51 434.035 1693.47C434.144 1695.57 434.078 1697.68 433.835 1699.77C431.958 1710.18 432.287 1720.84 434.803 1731.13C423.113 1735.82 411.423 1740.46 399.883 1745.24C397.178 1746.36 394.005 1746.84 392.235 1749.55H297.111Z" fill="#E91229"/>
<path d="M0.0501491 1613.42L2.50501 1613.24C3.44021 1632.66 5.54449 1651.86 11.3394 1670.62C20.2572 1699.48 35.0198 1724.91 58.617 1745.2C59.9864 1746.39 61.9573 1747.29 61.7903 1749.55H0L0.0501491 1613.42Z" fill="#E91229"/>
<path d="M392.234 1749.55C394.005 1746.85 397.245 1746.34 399.883 1745.23C411.573 1740.43 423.163 1735.82 434.803 1731.13L447.294 1749.55H392.234Z" fill="black"/>
<path d="M171.71 1168.29C170.64 1166.4 170.246 1164.23 170.591 1162.1C171.326 1148.87 167.151 1136.91 160.571 1125.5C156.316 1117.71 151.072 1110.47 144.957 1103.92C154.073 1097.34 164.321 1092.34 175.234 1089.15C201.386 1081.59 223.864 1089.6 235.053 1108.18C236.523 1110.61 237.926 1111.76 240.999 1110.57C252.806 1106 264.679 1101.63 276.369 1097.23C276.369 1093.55 274.699 1091.03 273.497 1088.4C265.665 1071.91 256.019 1056.27 244.723 1041.75C239.111 1034.5 239.078 1034.5 246.743 1028.62C309.213 980.607 371.682 932.596 434.151 884.586C452.789 870.237 471.309 855.728 489.879 841.299C502.588 854.766 513.059 869.836 523.463 884.938C550.21 923.905 571.491 966.085 586.756 1010.39C588.677 1015.9 591.149 1021.36 590.998 1027.37C576.085 1031.57 561.189 1035.82 546.242 1039.97C537.642 1042.36 538.226 1042.08 540.547 1049.59C540.714 1050.1 540.764 1050.63 540.898 1051.19C556.212 1106.85 559.168 1163.3 552.004 1220.3C545.441 1272.48 530.745 1322.73 511.79 1371.9C511.189 1373.5 511.256 1375.78 508.366 1376.13C506.98 1375.12 505.394 1374.06 503.941 1372.92C490.214 1361.4 481.379 1346.76 474.365 1330.84C467.034 1314.21 464.162 1296.55 460.638 1279.01C453.958 1245.93 444.556 1213.63 430.578 1182.67C422.512 1164.86 411.907 1148.68 397.044 1135.34C379.141 1119.31 358.149 1110.04 333.467 1108.75C315.097 1107.77 297.495 1110.97 280.16 1116.28C252.755 1124.67 227.321 1137.25 201.87 1149.85C191.152 1154.93 181.04 1161.12 171.71 1168.29V1168.29Z" fill="#E91229"/>
<path d="M55.1948 1454.99C54.5936 1451.01 56.7643 1447.76 58.2506 1444.38C73.9988 1408.88 91.0329 1373.93 108.017 1338.97C124.4 1305.2 140.565 1271.33 153.675 1236.22C154.427 1234.23 155.462 1232.34 156.363 1230.4C158.033 1241.75 159.837 1253.08 163.678 1264.06C181.13 1313.67 214.864 1347.43 267.753 1362.58C272.195 1363.85 274.216 1363.01 276.103 1359.09C282.666 1345.27 289.547 1331.59 296.243 1317.82C297.145 1315.98 298.648 1314.17 297.763 1311.63C296.811 1311.38 295.776 1311.05 294.707 1310.83C276.657 1307.27 259.772 1299.57 245.492 1288.39C224.467 1272.03 211.441 1251.21 209.721 1224.88C207.633 1192.69 221.16 1178.07 242.319 1168.15C263.092 1158.28 286.183 1153.78 309.32 1155.08C319.344 1155.45 329.186 1157.77 338.247 1161.9C347.308 1166.04 355.398 1171.9 362.025 1179.13C373.715 1191.36 381.464 1205.68 387.292 1221.08C397.87 1249.45 405.664 1278.71 410.572 1308.47C414.212 1329.8 418.17 1351.01 425.602 1371.51C443.248 1420.78 476.704 1456.33 525.969 1478.16C524.299 1484.97 520.425 1490.98 517.419 1497.2C497.914 1537.88 478.074 1578.41 459.503 1619.48C459.002 1602.36 457.182 1585.43 451.637 1569.01C440.816 1536.95 421.661 1510.32 396.076 1487.57C360.405 1455.86 318.638 1434.04 273.314 1418.18C241.5 1406.96 208.818 1399.95 174.7 1400.55C129.226 1401.3 90.7826 1416.99 60.5889 1450.25C58.8687 1451.83 57.7833 1454.17 55.1948 1454.99Z" fill="#E91229"/>
<path d="M525.852 1478.09C476.631 1456.2 443.176 1420.66 425.485 1371.45C418.137 1350.94 414.179 1329.76 410.455 1308.41C405.547 1278.65 397.753 1249.39 387.175 1221.02C381.346 1205.61 373.531 1191.3 361.908 1179.06C355.28 1171.83 347.19 1165.97 338.13 1161.84C329.069 1157.7 319.227 1155.38 309.202 1155.01C286.066 1153.71 262.975 1158.22 242.202 1168.08C221.043 1178 207.516 1192.63 209.603 1224.82C211.273 1251.14 224.349 1271.97 245.374 1288.32C259.655 1299.5 276.54 1307.2 294.589 1310.77C295.658 1310.99 296.694 1311.31 297.646 1311.57C298.531 1314.1 297.028 1315.91 296.126 1317.76C289.446 1331.53 282.549 1345.2 275.986 1359.02C274.132 1362.95 272.111 1363.83 267.636 1362.52C214.747 1347.32 181.012 1313.6 163.561 1264C159.72 1253.08 157.9 1241.75 156.246 1230.33C155.497 1220.87 155.726 1211.36 156.931 1201.94C158.451 1189.34 162.676 1177.89 171.594 1168.27C180.887 1161.07 190.965 1154.85 201.654 1149.72C227.105 1137.12 252.539 1124.54 279.944 1116.15C297.278 1110.85 314.914 1107.64 333.25 1108.62C357.933 1109.92 378.925 1119.18 396.827 1135.22C411.69 1148.55 422.295 1164.73 430.361 1182.54C444.406 1213.5 453.825 1245.8 460.421 1278.88C463.945 1296.42 466.817 1314.15 474.149 1330.71C481.163 1346.63 489.997 1361.27 503.724 1372.79C505.177 1374.01 506.764 1375.07 508.15 1376C511.039 1375.65 510.973 1373.32 511.574 1371.77C530.528 1322.6 545.224 1272.37 551.787 1220.17C558.952 1163.18 555.996 1106.73 540.682 1051.06C540.548 1050.53 540.498 1050 540.331 1049.46C538.01 1041.96 537.425 1042.23 546.026 1039.84C560.972 1035.69 575.869 1031.44 590.782 1027.24C593.738 1030.03 594.389 1033.83 595.341 1037.39C610.096 1092.54 614.909 1149.72 609.57 1206.43C603.09 1278.06 582.849 1346.29 555.177 1412.75C547.145 1431.98 538.394 1451.11 529.91 1470.25C528.942 1473.01 528.073 1475.93 525.852 1478.09Z" fill="black"/>
<path d="M489.879 841.348C471.308 855.776 452.788 870.205 434.151 884.634C371.704 932.666 309.235 980.677 246.743 1028.67C239.078 1034.55 239.111 1034.55 244.722 1041.8C256.033 1056.33 265.691 1071.99 273.53 1088.5C274.766 1091.13 276.452 1093.64 276.402 1097.33C264.712 1101.72 252.839 1106.1 241.032 1110.67C237.959 1111.86 236.556 1110.67 235.086 1108.28C223.897 1089.7 201.419 1081.68 175.267 1089.25C164.353 1092.44 154.106 1097.44 144.99 1104.02C140.297 1099.37 135.62 1094.7 130.894 1090.09C130.241 1089.63 129.712 1089.03 129.352 1088.34C128.991 1087.65 128.81 1086.88 128.824 1086.11C155.299 1057.32 181.774 1028.52 208.249 999.712C277.276 924.394 346.303 849.043 415.33 773.66C416.249 772.666 417.117 771.608 418.002 770.582C419.667 770.716 421.232 771.402 422.428 772.522C446.659 793.78 470.039 815.969 489.879 841.348Z" fill="black"/>
<path d="M223.529 1707.67C202.638 1707.37 179.041 1706.5 155.844 1701.58C134.435 1697.01 114.295 1689.56 97.3942 1675.7C72.8618 1655.6 61.5222 1629.21 60.4033 1598.88C58.9887 1566.62 68.1027 1534.75 86.4723 1507.7C105.761 1479.01 133.683 1464.21 169.304 1462.81C191.816 1461.95 213.626 1465.68 234.919 1472.22C278.974 1485.72 320.09 1504.75 355.727 1533.45C369.977 1544.62 382.01 1558.16 391.249 1573.44C405.277 1597.18 408.65 1622.03 399.599 1648.18C397.117 1655.84 393.056 1662.94 387.656 1669.06C382.257 1675.19 375.629 1680.2 368.169 1683.82C351.168 1692.28 332.798 1696.4 314.211 1699.74C284.287 1704.95 253.941 1707.6 223.529 1707.67Z" fill="#E91229"/>
<path d="M2762.22 1269.73C2764.51 1271.92 2765.6 1274.01 2764.42 1277.18L2978.13 706.645C2975.53 713.47 2971.76 716.393 2964.32 717.504C2936.24 721.739 2908.28 726.576 2880.19 731.295C2823 740.967 2765.83 750.829 2709.03 762.31C2704.87 763.15 2700.26 763.142 2696.89 766.266C2723.56 843.266 2750.23 920.26 2776.9 997.248C2790.75 1037.55 2804.74 1077.79 2818.85 1117.97C2820.68 1122.48 2820.67 1127.44 2818.83 1131.85C2815.19 1140.61 2812.09 1149.59 2808.49 1159.2C2805.09 1156.74 2803.76 1153.82 2802.03 1151.37C2752.47 1079.18 2702.89 1007 2653.28 934.833C2646.82 925.428 2648.61 924.854 2639.33 933.091C2630.04 941.328 2621.86 950.721 2612.84 959.278C2600.55 970.921 2587.87 982.293 2575.7 994.109C2567.98 1001.62 2560.08 1008.95 2552.47 1016.53C2549.62 1019.36 2547.61 1019.46 2544.64 1016.41C2535.81 1007.5 2526.97 998.717 2517.86 990.145C2514.68 987.132 2515.22 985.24 2517.84 982.504C2531.54 968.51 2542.18 951.952 2549.13 933.784C2550.57 929.505 2552.8 925.532 2555.71 922.056C2561.66 915.533 2564.55 907.731 2566.93 899.599C2572.12 881.813 2578.98 864.468 2581.78 845.986C2583.73 833.449 2585.38 820.891 2582.79 808.117C2580.6 808.77 2578.58 809.857 2576.86 811.311C2559.36 823.599 2543.61 838.03 2529.96 854.259C2523.86 861.63 2518.22 869.411 2508.84 873.517C2506.59 874.499 2504.91 876.723 2503.08 878.493C2456.53 922.872 2409.99 967.253 2363.45 1011.64C2361.05 1013.99 2358.11 1015.95 2357.14 1019.42C2364.76 1016.74 2372.27 1014 2379.96 1011.6C2471.64 983.076 2559.49 1046.09 2571.39 1130.38C2575.19 1158.58 2573.37 1187.08 2566.03 1214.31C2557.68 1246.44 2548.57 1278.38 2539.75 1310.38C2538.54 1314.43 2537.99 1318.66 2538.12 1322.91C2538.7 1334.76 2538.8 1346.65 2540.02 1358.46C2541.98 1379.21 2550.03 1399.14 2563.22 1415.88C2564.62 1417.6 2565.68 1419.8 2568.47 1420.84C2572.91 1417.11 2576.15 1412.17 2579.74 1407.61C2590.77 1393.67 2602.81 1380.51 2615.78 1368.25C2654.75 1331.45 2693.41 1294.48 2732.2 1257.56C2733.64 1256.18 2735.1 1254.74 2736.53 1253.47C2741.22 1249.2 2741.27 1249.16 2746.05 1253.82C2751.47 1259.08 2756.66 1264.49 2762.22 1269.73Z" fill="#E91229"/>
<path d="M2453.07 1740.64C2448.34 1755.31 2442.51 1769.55 2438.43 1784.47C2433.08 1804.22 2429.09 1824.32 2426.49 1844.64C2426.34 1847.17 2425.79 1849.65 2424.84 1851.99C2406.28 1850.11 2387.68 1848.29 2369.11 1846.32C2364.84 1845.88 2363.02 1846.86 2362.83 1851.55C2362.32 1863.4 2362.59 1875.23 2363 1887.1L1939.45 1728.53C1944.08 1717.63 1944.82 1705.65 1947.63 1694.23C1952.5 1674.39 1957.56 1654.5 1962.99 1634.77C1968.22 1615.78 1975.89 1597.66 1981.17 1578.72C1982.6 1573.64 1983.98 1568.4 1987.43 1564.11C1987.21 1570.02 1986.89 1575.95 1986.78 1581.92C1985.82 1640.53 2007.82 1689.45 2056.03 1726.98C2079.33 1745.09 2105.93 1757.37 2134.02 1766.41C2156.37 1773.5 2179.26 1778.74 2202.43 1782.08C2252.19 1789.48 2301.89 1790.97 2351.33 1783.67C2388.89 1778.07 2424.22 1767.31 2452.21 1741.17C2452.48 1740.8 2452.88 1740.79 2453.07 1740.64Z" fill="#E91229"/>
<path d="M2363 1887.1C2362.59 1875.23 2362.33 1863.38 2362.83 1851.55C2363.02 1846.86 2364.84 1845.88 2369.11 1846.32C2387.68 1848.29 2406.28 1850.11 2424.85 1851.99C2424.89 1858.99 2424.89 1865.97 2424.98 1872.97C2425.41 1886.23 2427.28 1899.45 2430.57 1912.4L2363 1887.1Z" fill="black"/>
<path d="M2575.11 1517.61C2562.29 1537.18 2549.33 1556.69 2536.71 1576.34C2524.38 1595.55 2512.64 1615.11 2502.01 1635.28C2500.27 1638.17 2498.37 1640.96 2496.29 1643.62C2498.79 1608.46 2489.42 1575.69 2471.67 1544.71C2458.43 1522.02 2442.1 1501.1 2423.13 1482.55C2390.3 1449.91 2352.62 1422.22 2311.41 1400.46C2280.39 1383.99 2248.05 1371.32 2213.24 1365.81C2154.82 1356.58 2104.16 1370.9 2062.12 1410.32C2059.65 1412.65 2057.06 1414.84 2054.53 1417.08C2058.12 1406.64 2064.27 1397.45 2069.61 1387.91C2103.05 1328.27 2140.08 1270.65 2180.5 1215.35C2197.9 1191.4 2215.9 1167.89 2234.48 1144.79C2236.42 1142.38 2238.69 1140.23 2240.8 1137.97C2240.4 1139.02 2240.22 1140.16 2239.81 1141.21C2233.33 1157.47 2228.36 1174.09 2226.91 1191.73C2221.95 1252.45 2252.62 1305.09 2309.41 1332.97C2316.7 1336.55 2316.66 1336.52 2321.83 1329.95C2332.57 1316.51 2343.35 1303.1 2354.15 1289.71C2356.05 1287.36 2357.92 1284.98 2359.67 1282.75C2358.25 1280.71 2356.19 1279.16 2353.8 1278.35C2344.6 1273.79 2336.11 1267.97 2328.59 1261.07C2291.11 1227.93 2287.14 1181.39 2308.25 1144.18C2318.51 1126.07 2332.64 1111.11 2347.73 1096.92C2354.86 1090.39 2362.95 1084.91 2371.75 1080.64C2391.93 1070.58 2413.44 1066.77 2435.95 1072.57C2476.07 1082.88 2503.55 1114.97 2507.59 1154.84C2510.06 1179.23 2505.67 1202.62 2499.78 1225.92C2495.94 1240.91 2491.49 1255.74 2488.21 1270.85C2484.16 1289.55 2482.8 1308.74 2480.52 1327.75C2470.48 1409.5 2506.31 1470.97 2575.11 1517.61Z" fill="#E91229"/>
<path d="M2054.46 1417.01C2057 1414.76 2059.58 1412.57 2062.05 1410.24C2104.13 1370.89 2154.71 1356.61 2213.17 1365.74C2248 1371.19 2280.32 1383.91 2311.35 1400.38C2352.58 1422.14 2390.29 1449.84 2423.15 1482.5C2442.14 1501.08 2458.49 1522.02 2471.75 1544.74C2489.5 1575.72 2498.9 1608.43 2496.37 1643.65C2492.81 1674.15 2482.64 1702.09 2464.28 1726.86C2460.77 1731.61 2456.88 1736.09 2453.14 1740.74C2452.86 1740.85 2452.54 1740.89 2452.34 1741.07C2424.35 1767.22 2389.02 1777.98 2351.46 1783.57C2302 1790.94 2252.3 1789.45 2202.56 1781.98C2179.39 1778.64 2156.5 1773.4 2134.15 1766.32C2106.06 1757.28 2079.48 1745 2056.16 1726.88C2007.92 1689.44 1985.92 1640.52 1986.91 1581.83C1987 1575.9 1987.32 1569.98 1987.56 1564.02C1990.73 1541.21 1996.57 1518.88 2004.95 1497.48C2015.98 1469.54 2031.72 1443.67 2051.54 1420.91C2052.55 1419.81 2053.47 1418.35 2054.46 1417.01ZM2175.06 1701.43C2209.45 1713.84 2245.12 1722.32 2281.34 1726.69C2306.99 1729.73 2332.55 1730.23 2357.8 1724.99C2402.66 1715.68 2427.41 1684.72 2433.87 1643.76C2437.56 1620.18 2430.97 1598.31 2418.73 1577.67C2407.43 1558.63 2392.44 1542.42 2375.81 1527.74C2343.4 1499.2 2306.91 1476.68 2267.6 1458.62C2244.39 1448 2220.27 1439.39 2194.77 1436.39C2146.34 1430.66 2108.05 1446.18 2080.93 1485.09C2068.57 1502.67 2059.94 1522.51 2055.52 1543.5C2046.2 1587.76 2058.59 1625.72 2093.8 1656.82C2116.69 1677.04 2143.85 1689.93 2175.06 1701.43V1701.43Z" fill="black"/>
<path d="M2575.11 1517.61C2506.31 1470.97 2470.48 1409.5 2480.36 1327.62C2482.64 1308.62 2484 1289.42 2488.05 1270.72C2491.34 1255.61 2495.78 1240.78 2499.62 1225.79C2505.58 1202.55 2509.99 1179.13 2507.43 1154.71C2503.39 1114.84 2475.92 1082.75 2435.8 1072.44C2413.28 1066.64 2391.79 1070.4 2371.59 1080.51C2362.79 1084.78 2354.7 1090.26 2347.57 1096.79C2332.48 1111 2318.35 1125.94 2308.09 1144.05C2286.97 1181.27 2290.95 1227.8 2328.43 1260.94C2335.95 1267.84 2344.45 1273.66 2353.64 1278.22C2356.03 1279.03 2358.09 1280.58 2359.52 1282.62C2357.77 1284.83 2355.91 1287.22 2354 1289.58C2343.22 1303 2332.44 1316.42 2321.67 1329.82C2316.45 1336.37 2316.5 1336.4 2309.25 1332.84C2252.46 1304.96 2221.79 1252.32 2226.75 1191.6C2228.2 1173.96 2233.17 1157.34 2239.65 1141.08C2240.04 1140.04 2240.31 1138.93 2240.64 1137.84C2263.2 1090.33 2298.64 1054.23 2343.97 1026.71C2347.63 1024.47 2351.34 1022.44 2355.03 1020.32C2355.47 1020.35 2355.9 1020.26 2356.28 1020.06C2356.66 1019.87 2356.97 1019.58 2357.19 1019.22L2357.02 1019.32C2364.61 1016.74 2372.21 1013.92 2379.84 1011.51C2471.52 982.978 2559.38 1045.99 2571.27 1130.29C2575.07 1158.48 2573.25 1186.98 2565.91 1214.22C2557.63 1246.37 2548.45 1278.28 2539.63 1310.28C2538.42 1314.33 2537.87 1318.56 2538 1322.81C2538.59 1334.66 2538.71 1346.54 2539.91 1358.36C2541.87 1379.12 2549.92 1399.05 2563.1 1415.78C2564.49 1417.57 2565.55 1419.73 2568.35 1420.75C2572.8 1417 2576.01 1412.06 2579.63 1407.51C2590.66 1393.57 2602.7 1380.42 2615.66 1368.15C2654.62 1331.4 2693.32 1294.33 2732.09 1257.46C2733.54 1256.09 2735 1254.72 2736.42 1253.38C2741.1 1249.1 2741.16 1249.07 2745.94 1253.73C2751.36 1258.99 2756.62 1264.42 2762.11 1269.64C2764.44 1271.85 2765.56 1273.89 2764.3 1277.08C2756.63 1296.43 2750.28 1316.29 2741.87 1335.36C2725.09 1351.03 2708.83 1367.25 2691.45 1382.28C2646.92 1420.86 2611.03 1466.51 2577.57 1514.11C2576.84 1515.39 2575.96 1516.48 2575.11 1517.61Z" fill="black"/>
<path d="M2696.98 766.135C2723.64 843.134 2750.31 920.128 2776.98 997.117C2790.93 1037.38 2804.91 1077.62 2818.94 1117.84C2820.77 1122.35 2820.76 1127.31 2818.91 1131.71C2815.28 1140.48 2812.18 1149.46 2808.58 1159.07C2805.14 1156.65 2803.79 1153.78 2802.11 1151.24C2752.53 1079.06 2702.95 1006.89 2653.37 934.702C2646.91 925.296 2648.76 924.618 2639.41 932.96C2630.06 941.302 2621.91 950.669 2612.93 959.147C2600.64 970.79 2587.96 982.146 2575.78 993.978C2568.07 1001.49 2560.17 1008.82 2552.56 1016.4C2549.63 1019.2 2547.7 1019.33 2544.72 1016.28C2535.97 1007.37 2527.06 998.57 2517.95 990.014C2514.76 987.017 2515.31 985.109 2517.93 982.373C2531.63 968.379 2542.26 951.821 2549.22 933.653C2550.65 929.374 2552.88 925.401 2555.79 921.925C2561.75 915.401 2564.66 907.536 2567.02 899.468C2572.23 881.688 2579.08 864.274 2581.86 845.855C2583.78 833.305 2585.43 820.748 2582.88 807.986C2602.08 794.454 2623.61 785.328 2646.07 778.053C2660.01 773.576 2674.19 769.806 2688.57 766.758C2691.24 766.244 2694.06 765.096 2696.98 766.135Z" fill="black"/>
<path d="M2175.06 1701.43C2143.85 1689.93 2116.69 1677.04 2093.8 1656.82C2058.56 1625.7 2046.2 1587.76 2055.52 1543.5C2059.94 1522.51 2068.57 1502.67 2080.93 1485.09C2108.05 1446.18 2146.42 1430.69 2194.77 1436.39C2220.36 1439.42 2244.39 1448 2267.6 1458.62C2306.93 1476.63 2343.4 1499.2 2375.81 1527.74C2392.51 1542.44 2407.48 1558.64 2418.73 1577.67C2430.97 1598.31 2437.56 1620.18 2433.87 1643.76C2427.46 1684.68 2402.61 1715.66 2357.8 1724.99C2332.55 1730.23 2306.99 1729.72 2281.34 1726.69C2245.12 1722.32 2209.45 1713.84 2175.06 1701.43V1701.43Z" fill="#E91229"/>
<path d="M1319.96 149.139C1322.31 151.134 1324.51 153.503 1327.73 154.473C1355.51 122.964 1383.21 91.4241 1410.83 59.8531C1426.69 41.8605 1442.52 23.8306 1458.29 5.76335C1461.05 2.68583 1463.58 0.167858 1468.59 0.167858C1497.38 0.373026 1526.18 0.373027 1554.95 0.373027C1555.92 0.479986 1556.87 0.692745 1557.79 1.00718C1557.96 4.7375 1555.48 7.40469 1553.9 10.333C1537.22 41.1455 1520.46 71.9456 1503.62 102.733C1499.52 110.362 1499.09 109.597 1507.29 113.514C1545.86 131.822 1586.79 145.138 1629.01 153.111C1632.51 153.783 1635.99 154.473 1639.49 155.088L1639.5 155.09C1653.26 157.513 1653.28 157.516 1651.14 170.345C1649.61 179.541 1648.13 188.736 1646.44 197.894C1645.31 204.329 1645.16 204.422 1638.67 203.732C1624.86 202.277 1611.06 200.58 1597.25 199.125C1560.82 195.32 1524.33 193.958 1487.86 198.118C1468.22 200.337 1449.04 204.832 1431.83 214.904C1429.38 216.359 1426.66 217.515 1425.15 220.089C1461.64 238.873 1499.94 254.232 1539.5 265.954C1592.95 281.853 1648.25 291.314 1704.12 294.118C1732.82 295.554 1761.67 294.957 1790.41 294.286C1809.05 293.711 1827.64 292.192 1846.11 289.735C1825.54 285.743 1804.82 282.237 1785.4 274.105C1761.95 264.312 1740.67 251.611 1724.35 232.399C1697.15 200.3 1692.23 164.265 1704.92 125.47C1711.92 104.132 1724.12 85.5364 1738.82 68.3956C1759.71 44.0365 1784.04 23.184 1810.01 4.01009C1812.43 1.93431 1815.42 0.60136 1818.6 0.157968L1184.53 0.0760826C1188.44 0.472966 1191.16 2.63216 1193.59 6.26695C1201.82 18.5397 1210.32 30.6322 1219.1 42.5444C1247.92 82.0051 1281.81 117.819 1319.96 149.139Z" fill="#E91229"/>
<path d="M2179.3 2.07033C2179.6 0.978735 2180.12 0.445561 2180.74 0.204736L1904.16 0.169018C1904.9 0.330222 1905.6 0.593679 1906.26 0.951223C1905.54 3.84223 1902.86 5.29706 1900.92 7.05032C1882.4 23.0348 1863.77 38.9073 1845.26 54.8918C1832.38 65.7826 1820.75 77.9629 1810.58 91.2252C1797.83 108.235 1789.44 126.831 1789.73 148.187C1790.08 173.46 1801.07 193.791 1822.25 208.712C1842.03 222.626 1864.67 228.016 1888.66 229.229C1909.4 230.076 1930.13 227.308 1949.84 221.059C1968.7 215.504 1986.89 208.032 2004.11 198.771C2019.78 190.191 2032.57 178.571 2043.92 165.198C2060.58 145.557 2064.12 123.493 2058.04 99.4692C2054.3 84.9571 2047.37 71.3839 2037.7 59.6666C2035.93 57.4844 2034.08 55.2835 2032.47 53.4183C2032.57 51.0869 2034.24 50.5646 2035.62 49.8745C2055.05 39.9891 2074.42 29.9918 2093.19 19.006C2097.67 16.3761 2100.39 16.8984 2103.81 20.6287C2130.55 49.5388 2145.31 82.8879 2142.32 121.851C2139.19 162.512 2119.78 195.712 2087.92 222.421C2082.89 226.655 2076.54 229.322 2072.65 234.917C2076.83 235.477 2080.07 233.164 2083.51 231.56C2103.46 222.16 2123.07 211.827 2142.32 201.046C2223.24 155.834 2298.8 103.423 2370.9 46.2374C2376.03 42.2273 2382.27 38.9819 2385.49 32.9015C2369.02 39.3363 2352.31 44.8759 2334.59 47.3379C2309.31 51.1276 2283.47 49.684 2258.82 43.1039C2229.62 34.898 2202.53 20.921 2179.3 2.07033Z" fill="#E91229"/>
<path d="M1846.31 289.846C1825.73 285.855 1805.04 282.385 1785.59 274.216C1762.14 264.424 1740.9 251.722 1724.55 232.511C1697.34 200.411 1692.43 164.376 1705.12 125.581C1712.11 104.243 1724.31 85.6478 1739.02 68.5069C1759.91 44.1479 1784.23 23.2953 1810.21 4.12142C1813.11 1.63171 1816.83 0.210624 1820.72 0.111328C1848.52 0.260541 1876.34 0.20459 1904.26 0.260545C1905.03 0.419551 1905.77 0.689966 1906.46 1.06255C1905.74 3.95356 1903.13 5.40839 1901.11 7.16165C1882.6 23.1461 1863.97 39.0187 1845.45 55.0031C1832.58 65.894 1820.95 78.0742 1810.77 91.3365C1798.03 108.347 1789.63 126.943 1789.92 148.299C1790.27 173.572 1801.27 193.846 1822.45 208.823C1842.15 222.737 1864.86 228.128 1888.85 229.34C1909.6 230.187 1930.32 227.419 1950.04 221.171C1968.84 215.628 1986.97 208.181 2004.13 198.957C2019.8 190.339 2032.59 178.719 2043.94 165.384C2060.61 145.743 2064.14 123.678 2058.06 99.6552C2054.32 85.1431 2047.39 71.5698 2037.72 59.8525C2035.95 57.6703 2034.1 55.5254 2032.49 53.6043C2032.49 51.2728 2034.26 50.7505 2035.64 50.0604C2055.07 40.1751 2074.5 30.1778 2093.21 19.192C2097.69 16.5621 2100.41 17.1216 2103.83 20.8147C2130.57 49.7247 2145.33 83.0738 2142.34 122.037C2139.23 162.698 2119.82 195.898 2087.94 222.607C2082.91 226.841 2076.58 229.601 2072.67 235.103H2072.9C2072.07 234.943 2071.21 235.058 2070.45 235.431C2069.7 235.804 2069.09 236.412 2068.75 237.155C2053.2 246.052 2038.11 255.546 2021.26 262.13C1970.09 282.143 1917.42 294.472 1861.65 291.077C1856.6 290.592 1851.45 290.2 1846.31 289.846Z" fill="black"/>
<path d="M1327.73 154.472C1355.5 122.951 1383.27 91.4235 1411.02 59.8898C1426.88 41.8723 1442.7 23.8423 1458.49 5.79999C1461.25 2.62921 1463.77 0.0739357 1468.78 0.204497C1497.58 0.446969 1526.37 0.353712 1555.15 0.409666C1556.11 0.516626 1557.07 0.729384 1557.98 1.04382C1558.1 4.77414 1555.61 7.51594 1554.1 10.3696C1537.41 41.1946 1520.65 71.9947 1503.81 102.77C1499.64 110.398 1499.29 109.634 1507.49 113.551C1546.04 131.829 1586.95 145.119 1629.15 153.073C1632.65 153.745 1636.12 154.435 1639.62 155.05C1653.36 157.475 1653.38 157.475 1651.28 170.307C1649.74 179.503 1648.27 188.698 1646.58 197.856C1645.37 204.291 1645.22 204.384 1638.81 203.694C1624.99 202.239 1611.2 200.542 1597.38 199.087C1560.95 195.357 1524.47 193.92 1488 198.08C1468.36 200.337 1449.14 204.832 1431.97 214.866C1429.52 216.302 1426.8 217.477 1425.28 220.051C1422.49 220.48 1420.27 219.119 1418.04 217.869C1388.04 201.195 1359.09 183.084 1332.36 161.914C1329.95 159.974 1326.47 158.482 1327.73 154.472Z" fill="black"/>
<path d="M2385.61 32.9575C2369.14 39.3924 2352.43 44.9319 2334.71 47.3939C2309.42 51.1837 2283.59 49.7401 2258.93 43.16C2229.74 34.9541 2202.65 20.977 2179.41 2.12639C2180.21 -0.839226 2182.56 0.261221 2184.21 0.261221C2267.54 0.261221 2350.87 0.261221 2434.2 0.261221C2435.81 0.261221 2437.41 0.503687 2439.02 0.634249C2423.13 14.3059 2404.71 24.1167 2385.61 32.9575Z" fill="black"/>
</svg>
